<svg width="900" height="1100" viewBox="0 0 900 1100" fill="none" xmlns="http://www.w3.org/2000/svg">
  <defs>
    <linearGradient id="body" x1="230" y1="90" x2="720" y2="1050" gradientUnits="userSpaceOnUse">
      <stop stop-color="#E9E9E4"/>
      <stop offset="0.42" stop-color="#8E8E89"/>
      <stop offset="0.72" stop-color="#4A4A46"/>
      <stop offset="1" stop-color="#1B1B19"/>
    </linearGradient>
    <linearGradient id="rimlight" x1="660" y1="140" x2="560" y2="520" gradientUnits="userSpaceOnUse">
      <stop stop-color="#F5F4EF" stop-opacity=".55"/>
      <stop offset="1" stop-color="#F5F4EF" stop-opacity="0"/>
    </linearGradient>
    <linearGradient id="fadeOut" x1="0" y1="640" x2="0" y2="1100" gradientUnits="userSpaceOnUse">
      <stop offset="0" stop-color="#08080A" stop-opacity="0"/>
      <stop offset="1" stop-color="#08080A" stop-opacity=".92"/>
    </linearGradient>
    <radialGradient id="halo" cx="0" cy="0" r="1" gradientUnits="userSpaceOnUse" gradientTransform="translate(490 340) rotate(90) scale(430 400)">
      <stop stop-color="#F5F4EF" stop-opacity=".05"/>
      <stop offset=".6" stop-color="#F5F4EF" stop-opacity=".015"/>
      <stop offset="1" stop-color="#F5F4EF" stop-opacity="0"/>
    </radialGradient>
    <filter id="grain" x="-20%" y="-20%" width="140%" height="140%">
      <feTurbulence type="fractalNoise" baseFrequency="0.9" numOctaves="2" stitchTiles="stitch" result="noise"/>
      <feColorMatrix in="noise" type="matrix" values="0 0 0 0 0  0 0 0 0 0  0 0 0 0 0  0 0 0 0.05 0"/>
    </filter>
  </defs>

  <ellipse cx="490" cy="345" rx="420" ry="400" fill="url(#halo)"/>

  <g>
    <ellipse cx="486" cy="258" rx="146" ry="176" fill="url(#body)"/>
    <path
      d="M344 366
         C 368 418 392 452 412 472
         C 306 556 222 682 188 1100
         L 792 1100
         C 758 682 674 556 568 472
         C 588 452 612 418 636 366
         C 586 428 538 456 486 456
         C 434 456 386 428 344 366 Z"
      fill="url(#body)"
    />
    <ellipse cx="486" cy="258" rx="146" ry="176" fill="url(#rimlight)" opacity=".5"/>
    <path
      d="M344 366
         C 368 418 392 452 412 472
         C 306 556 222 682 188 1100
         L 792 1100
         C 758 682 674 556 568 472
         C 588 452 612 418 636 366
         C 586 428 538 456 486 456
         C 434 456 386 428 344 366 Z"
      fill="url(#rimlight)" opacity=".35"
    />
  </g>

  <rect x="150" y="640" width="650" height="460" fill="url(#fadeOut)"/>
  <rect x="0" y="0" width="900" height="1100" filter="url(#grain)" opacity=".5"/>
</svg>
